<svg width="66" height="66" viewBox="0 0 66 66" fill="none" xmlns="http://www.w3.org/2000/svg">
<rect x="5" y="5" width="56" height="56" rx="28" fill="#D1FADF"/>
<path d="M43 32.0818V33.0018C42.9988 35.1582 42.3005 37.2565 41.0093 38.9836C39.7182 40.7108 37.9033 41.9743 35.8354 42.5857C33.7674 43.1971 31.5573 43.1237 29.5345 42.3764C27.5117 41.6291 25.7847 40.2479 24.611 38.4389C23.4373 36.6299 22.8798 34.4899 23.0217 32.3381C23.1636 30.1864 23.9972 28.1381 25.3983 26.4989C26.7994 24.8596 28.6928 23.7172 30.7962 23.242C32.8996 22.7667 35.1003 22.9842 37.07 23.8618M43 25.0018L33 35.0118L30 32.0118" stroke="#111727" stroke-width="1.67" stroke-linecap="round" stroke-linejoin="round"/>
<rect x="5" y="5" width="56" height="56" rx="28" stroke="#ECFDF3" stroke-width="10"/>
</svg>
