<svg width="73" height="250" viewBox="0 0 73 250" fill="none" xmlns="http://www.w3.org/2000/svg">
<path d="M56.5159 0.0915092C55.738 -0.193415 54.8764 0.206211 54.5915 0.984099L49.9484 13.6605C49.6635 14.4384 50.0631 15.3 50.841 15.5849C51.6189 15.8698 52.4805 15.4702 52.7654 14.6923L56.8926 3.42439L68.1605 7.5516C68.9384 7.83652 69.8 7.4369 70.0849 6.65901C70.3698 5.88112 69.9702 5.01954 69.1923 4.73462L56.5159 0.0915092ZM2.64943 249.964C3.46433 248.992 4.29163 247.987 5.12986 246.95L2.79679 245.064C1.96952 246.087 1.15363 247.078 0.350572 248.036L2.64943 249.964ZM10.0001 240.72C11.527 238.703 13.0793 236.594 14.6493 234.396L12.2083 232.652C10.6541 234.828 9.11819 236.915 7.60832 238.909L10.0001 240.72ZM19.1395 227.938C20.5769 225.814 22.023 223.622 23.472 221.366L20.9479 219.745C19.5118 221.981 18.079 224.152 16.655 226.256L19.1395 227.938ZM27.6488 214.695C28.9932 212.492 30.3355 210.237 31.6713 207.932L29.0758 206.428C27.7514 208.713 26.4206 210.949 25.088 213.133L27.6488 214.695ZM35.5398 201.082C36.7885 198.812 38.0276 196.499 39.2533 194.148L36.5929 192.761C35.3778 195.093 34.1493 197.385 32.9112 199.636L35.5398 201.082ZM42.8095 187.132C43.9582 184.8 45.0911 182.434 46.2049 180.036L43.4839 178.772C42.3801 181.149 41.2571 183.494 40.1183 185.806L42.8095 187.132ZM49.4347 172.861C50.4766 170.472 51.4971 168.055 52.4933 165.611L49.7153 164.478C48.7284 166.9 47.7172 169.295 46.6848 171.662L49.4347 172.861ZM55.3738 158.286C56.2992 155.843 57.1984 153.377 58.0684 150.888L55.2365 149.898C54.3752 152.361 53.4849 154.804 52.5684 157.223L55.3738 158.286ZM60.5683 143.421C61.3656 140.929 62.1318 138.417 62.8641 135.887L59.9824 135.053C59.2581 137.555 58.5 140.041 57.7109 142.507L60.5683 143.421ZM64.9445 128.294C65.5996 125.758 66.2189 123.206 66.7995 120.64L63.8734 119.978C63.2997 122.513 62.6876 125.036 62.0398 127.543L64.9445 128.294ZM68.4174 112.93C68.9152 110.354 69.3721 107.767 69.7856 105.168L66.8229 104.697C66.4147 107.262 65.9636 109.817 65.4719 112.361L68.4174 112.93ZM70.8906 97.3627C71.2132 94.7568 71.4901 92.1421 71.7186 89.5203L68.7299 89.2598C68.5046 91.8447 68.2316 94.4233 67.9133 96.9941L70.8906 97.3627ZM72.2555 81.6499C72.3843 79.0254 72.4624 76.3954 72.4873 73.7616L69.4874 73.7333C69.463 76.3266 69.386 78.917 69.2591 81.5029L72.2555 81.6499ZM72.4001 65.8707C72.3166 63.2448 72.1777 60.6167 71.9809 57.9882L68.9893 58.2121C69.1828 60.797 69.3194 63.3822 69.4016 65.9661L72.4001 65.8707ZM71.2176 50.1294C70.9053 47.5214 70.5335 44.9146 70.0996 42.3106L67.1404 42.8037C67.5666 45.3616 67.932 47.9229 68.2389 50.4861L71.2176 50.1294ZM68.6179 34.5491C68.0646 31.9821 67.4481 29.4195 66.7661 26.8627L63.8675 27.6358C64.5368 30.1453 65.142 32.6609 65.6853 35.1813L68.6179 34.5491ZM64.5415 19.2744C63.7432 16.7804 62.8796 14.2936 61.9484 11.8155L59.1401 12.8706C60.0536 15.3019 60.901 17.7419 61.6843 20.1891L64.5415 19.2744ZM58.9871 4.49338C58.462 3.28267 57.9199 2.07443 57.3608 0.868843L54.6392 2.13116C55.1879 3.31397 55.7196 4.49935 56.2348 5.68714L58.9871 4.49338Z" fill="#219653"/>
</svg>
