<svg width="84" height="221" viewBox="0 0 84 221" fill="none" xmlns="http://www.w3.org/2000/svg">
<path d="M82.9197 216.44C83.7151 216.208 84.1719 215.376 83.9401 214.58L80.1626 201.62C79.9308 200.824 79.0981 200.367 78.3028 200.599C77.5075 200.831 77.0506 201.664 77.2824 202.459L80.6402 213.98L69.1196 217.337C68.3242 217.569 67.8674 218.402 68.0992 219.197C68.331 219.993 69.1637 220.449 69.959 220.218L82.9197 216.44ZM20.6445 0.357667C20.0416 1.62998 19.4541 2.89763 18.8817 4.16061L21.6143 5.39889C22.1795 4.15155 22.7599 2.89936 23.3555 1.64233L20.6445 0.357667ZM15.6173 11.7088C14.5482 14.3056 13.5434 16.8818 12.6011 19.4374L15.4159 20.4752C16.3451 17.9552 17.3363 15.4137 18.3914 12.8509L15.6173 11.7088ZM9.88547 27.2707C9.02145 29.9329 8.22545 32.5717 7.49524 35.1869L10.3847 35.9937C11.1036 33.419 11.8876 30.82 12.739 28.1967L9.88547 27.2707ZM5.44697 43.1875C4.81284 45.9129 4.25037 48.6113 3.75689 51.2824L6.70697 51.8274C7.19204 49.2019 7.74511 46.5484 8.36892 43.8674L5.44697 43.1875ZM2.44399 59.484C2.06789 62.2648 1.76674 65.0143 1.5373 67.7324L4.52666 67.9847C4.75186 65.317 5.04752 62.6173 5.41692 59.8861L2.44399 59.484ZM1.05361 76.013C0.96343 78.8134 0.949469 81.5782 1.00791 84.307L4.00722 84.2428C3.94993 81.5675 3.9636 78.8564 4.05206 76.1095L1.05361 76.013ZM1.41231 92.5922C1.62572 95.3832 1.91482 98.1339 2.27514 100.844L5.24897 100.448C4.89597 97.7936 4.61271 95.0985 4.40358 92.3635L1.41231 92.5922ZM3.60032 109.035C4.12473 111.782 4.72201 114.483 5.38704 117.139L8.29719 116.41C7.6458 113.809 7.06076 111.163 6.54709 108.473L3.60032 109.035ZM7.62974 125.129C8.46025 127.796 9.35844 130.413 10.3185 132.979L13.1283 131.928C12.1876 129.413 11.3076 126.849 10.4941 124.237L7.62974 125.129ZM13.4396 140.665C14.5603 143.221 15.7413 145.722 16.9761 148.167L19.654 146.815C18.4433 144.417 17.2855 141.966 16.187 139.461L13.4396 140.665ZM20.9089 155.465C22.2979 157.886 23.7377 160.247 25.2211 162.547L27.7422 160.921C26.2864 158.664 24.8737 156.347 23.5112 153.972L20.9089 155.465ZM29.8967 169.405C31.5307 171.675 33.2043 173.879 34.909 176.015L37.2537 174.143C35.5794 172.045 33.936 169.882 32.3317 167.652L29.8967 169.405ZM40.2374 182.364C42.0898 184.464 43.9674 186.489 45.8609 188.438L48.0123 186.347C46.152 184.433 44.3073 182.443 42.4876 180.379L40.2374 182.364ZM51.7861 194.246C53.8503 196.174 55.9215 198.012 57.9878 199.759L59.925 197.468C57.8959 195.752 55.8614 193.947 53.8335 192.053L51.7861 194.246ZM64.4328 204.937C66.7116 206.674 68.9691 208.297 71.1891 209.805L72.875 207.324C70.7005 205.846 68.4872 204.255 66.2514 202.551L64.4328 204.937ZM78.1816 214.259C79.3995 214.983 80.5995 215.668 81.7785 216.315L83.2215 213.685C82.0734 213.055 80.9032 212.387 79.714 211.68L78.1816 214.259Z" fill="#219653"/>
</svg>
