<svg width="1440" height="710" viewBox="0 0 1440 710" fill="none" xmlns="http://www.w3.org/2000/svg">
<ellipse cx="-0.879855" cy="2.59937" rx="1.12014" ry="1.11402" fill="#98A2B3"/>
<ellipse cx="-0.879855" cy="472.714" rx="1.12014" ry="1.11402" fill="#98A2B3"/>
<ellipse cx="621.921" cy="1.11402" rx="1.12014" ry="1.11402" fill="#98A2B3"/>
<ellipse cx="621.921" cy="471.229" rx="1.12014" ry="1.11402" fill="#98A2B3"/>
<ellipse cx="311.267" cy="2.59937" rx="1.12014" ry="1.11402" fill="#98A2B3"/>
<ellipse cx="311.267" cy="472.714" rx="1.12014" ry="1.11402" fill="#98A2B3"/>
<ellipse cx="934.068" cy="1.11402" rx="1.12014" ry="1.11402" fill="#98A2B3"/>
<ellipse cx="934.068" cy="471.229" rx="1.12014" ry="1.11402" fill="#98A2B3"/>
<ellipse cx="-0.879855" cy="160.047" rx="1.12014" ry="1.11402" fill="#98A2B3"/>
<ellipse cx="-0.879855" cy="630.162" rx="1.12014" ry="1.11402" fill="#98A2B3"/>
<ellipse cx="621.921" cy="158.562" rx="1.12014" ry="1.11402" fill="#98A2B3"/>
<ellipse cx="621.921" cy="628.677" rx="1.12014" ry="1.11402" fill="#98A2B3"/>
<ellipse cx="311.267" cy="160.047" rx="1.12014" ry="1.11402" fill="#98A2B3"/>
<ellipse cx="311.267" cy="630.162" rx="1.12014" ry="1.11402" fill="#98A2B3"/>
<ellipse cx="934.068" cy="158.562" rx="1.12014" ry="1.11402" fill="#98A2B3"/>
<ellipse cx="934.068" cy="628.677" rx="1.12014" ry="1.11402" fill="#98A2B3"/>
<ellipse cx="-0.879855" cy="317.495" rx="1.12014" ry="1.11402" fill="#98A2B3"/>
<ellipse cx="621.921" cy="316.009" rx="1.12014" ry="1.11402" fill="#98A2B3"/>
<ellipse cx="311.267" cy="317.495" rx="1.12014" ry="1.11402" fill="#98A2B3"/>
<ellipse cx="934.068" cy="316.009" rx="1.12014" ry="1.11402" fill="#98A2B3"/>
<ellipse cx="-0.879855" cy="81.3232" rx="1.12014" ry="1.11402" fill="#98A2B3"/>
<ellipse cx="-0.879855" cy="551.438" rx="1.12014" ry="1.11402" fill="#98A2B3"/>
<ellipse cx="621.921" cy="79.8379" rx="1.12014" ry="1.11402" fill="#98A2B3"/>
<ellipse cx="621.921" cy="549.953" rx="1.12014" ry="1.11402" fill="#98A2B3"/>
<ellipse cx="311.267" cy="81.3232" rx="1.12014" ry="1.11402" fill="#98A2B3"/>
<ellipse cx="311.267" cy="551.438" rx="1.12014" ry="1.11402" fill="#98A2B3"/>
<ellipse cx="934.068" cy="79.8379" rx="1.12014" ry="1.11402" fill="#98A2B3"/>
<ellipse cx="934.068" cy="549.953" rx="1.12014" ry="1.11402" fill="#98A2B3"/>
<ellipse cx="-0.879855" cy="238.771" rx="1.12014" ry="1.11402" fill="#98A2B3"/>
<ellipse cx="-0.879855" cy="708.886" rx="1.12014" ry="1.11402" fill="#98A2B3"/>
<ellipse cx="621.921" cy="237.286" rx="1.12014" ry="1.11402" fill="#98A2B3"/>
<ellipse cx="621.921" cy="707.401" rx="1.12014" ry="1.11402" fill="#98A2B3"/>
<ellipse cx="311.267" cy="238.771" rx="1.12014" ry="1.11402" fill="#98A2B3"/>
<ellipse cx="311.267" cy="708.886" rx="1.12014" ry="1.11402" fill="#98A2B3"/>
<ellipse cx="934.068" cy="237.286" rx="1.12014" ry="1.11402" fill="#98A2B3"/>
<ellipse cx="934.068" cy="707.401" rx="1.12014" ry="1.11402" fill="#98A2B3"/>
<ellipse cx="-0.879855" cy="396.219" rx="1.12014" ry="1.11402" fill="#98A2B3"/>
<ellipse cx="621.921" cy="394.733" rx="1.12014" ry="1.11402" fill="#98A2B3"/>
<ellipse cx="311.267" cy="396.219" rx="1.12014" ry="1.11402" fill="#98A2B3"/>
<ellipse cx="934.068" cy="394.733" rx="1.12014" ry="1.11402" fill="#98A2B3"/>
<ellipse cx="-0.879855" cy="41.9613" rx="1.12014" ry="1.11402" fill="#98A2B3"/>
<ellipse cx="-0.879855" cy="512.076" rx="1.12014" ry="1.11402" fill="#98A2B3"/>
<ellipse cx="621.921" cy="40.476" rx="1.12014" ry="1.11402" fill="#98A2B3"/>
<ellipse cx="621.921" cy="510.591" rx="1.12014" ry="1.11402" fill="#98A2B3"/>
<ellipse cx="311.267" cy="41.9613" rx="1.12014" ry="1.11402" fill="#98A2B3"/>
<ellipse cx="311.267" cy="512.076" rx="1.12014" ry="1.11402" fill="#98A2B3"/>
<ellipse cx="934.068" cy="40.476" rx="1.12014" ry="1.11402" fill="#98A2B3"/>
<ellipse cx="934.068" cy="510.591" rx="1.12014" ry="1.11402" fill="#98A2B3"/>
<ellipse cx="-0.879855" cy="199.409" rx="1.12014" ry="1.11402" fill="#98A2B3"/>
<ellipse cx="-0.879855" cy="669.524" rx="1.12014" ry="1.11402" fill="#98A2B3"/>
<ellipse cx="621.921" cy="197.924" rx="1.12014" ry="1.11402" fill="#98A2B3"/>
<ellipse cx="621.921" cy="668.039" rx="1.12014" ry="1.11402" fill="#98A2B3"/>
<ellipse cx="311.267" cy="199.409" rx="1.12014" ry="1.11402" fill="#98A2B3"/>
<ellipse cx="311.267" cy="669.524" rx="1.12014" ry="1.11402" fill="#98A2B3"/>
<ellipse cx="934.068" cy="197.924" rx="1.12014" ry="1.11402" fill="#98A2B3"/>
<ellipse cx="934.068" cy="668.039" rx="1.12014" ry="1.11402" fill="#98A2B3"/>
<ellipse cx="-0.879855" cy="356.857" rx="1.12014" ry="1.11402" fill="#98A2B3"/>
<ellipse cx="621.921" cy="355.371" rx="1.12014" ry="1.11402" fill="#98A2B3"/>
<ellipse cx="311.267" cy="356.857" rx="1.12014" ry="1.11402" fill="#98A2B3"/>
<ellipse cx="934.068" cy="355.371" rx="1.12014" ry="1.11402" fill="#98A2B3"/>
<ellipse cx="-0.879855" cy="120.685" rx="1.12014" ry="1.11402" fill="#98A2B3"/>
<ellipse cx="-0.879855" cy="590.8" rx="1.12014" ry="1.11402" fill="#98A2B3"/>
<ellipse cx="621.921" cy="119.2" rx="1.12014" ry="1.11402" fill="#98A2B3"/>
<ellipse cx="621.921" cy="589.315" rx="1.12014" ry="1.11402" fill="#98A2B3"/>
<ellipse cx="311.267" cy="120.685" rx="1.12014" ry="1.11402" fill="#98A2B3"/>
<ellipse cx="311.267" cy="590.8" rx="1.12014" ry="1.11402" fill="#98A2B3"/>
<ellipse cx="934.068" cy="119.2" rx="1.12014" ry="1.11402" fill="#98A2B3"/>
<ellipse cx="934.068" cy="589.315" rx="1.12014" ry="1.11402" fill="#98A2B3"/>
<ellipse cx="-0.879855" cy="278.133" rx="1.12014" ry="1.11402" fill="#98A2B3"/>
<ellipse cx="621.921" cy="276.647" rx="1.12014" ry="1.11402" fill="#98A2B3"/>
<ellipse cx="311.267" cy="278.133" rx="1.12014" ry="1.11402" fill="#98A2B3"/>
<ellipse cx="934.068" cy="276.647" rx="1.12014" ry="1.11402" fill="#98A2B3"/>
<ellipse cx="-0.879855" cy="435.581" rx="1.12014" ry="1.11402" fill="#98A2B3"/>
<ellipse cx="621.921" cy="434.095" rx="1.12014" ry="1.11402" fill="#98A2B3"/>
<ellipse cx="311.267" cy="435.581" rx="1.12014" ry="1.11402" fill="#98A2B3"/>
<ellipse cx="934.068" cy="434.095" rx="1.12014" ry="1.11402" fill="#98A2B3"/>
<ellipse cx="154.447" cy="2.59937" rx="1.12014" ry="1.11402" fill="#98A2B3"/>
<ellipse cx="154.447" cy="472.714" rx="1.12014" ry="1.11402" fill="#98A2B3"/>
<ellipse cx="777.248" cy="1.11402" rx="1.12014" ry="1.11402" fill="#98A2B3"/>
<ellipse cx="777.248" cy="471.229" rx="1.12014" ry="1.11402" fill="#98A2B3"/>
<ellipse cx="466.594" cy="2.59937" rx="1.12014" ry="1.11402" fill="#98A2B3"/>
<ellipse cx="466.594" cy="472.714" rx="1.12014" ry="1.11402" fill="#98A2B3"/>
<ellipse cx="1089.39" cy="1.11402" rx="1.12014" ry="1.11402" fill="#98A2B3"/>
<ellipse cx="1361.22" cy="1.11402" rx="1.12014" ry="1.11402" fill="#98A2B3"/>
<ellipse cx="1089.39" cy="471.229" rx="1.12014" ry="1.11402" fill="#98A2B3"/>
<ellipse cx="1361.22" cy="471.229" rx="1.12014" ry="1.11402" fill="#98A2B3"/>
<ellipse cx="154.447" cy="160.047" rx="1.12014" ry="1.11402" fill="#98A2B3"/>
<ellipse cx="154.447" cy="630.162" rx="1.12014" ry="1.11402" fill="#98A2B3"/>
<ellipse cx="777.248" cy="158.562" rx="1.12014" ry="1.11402" fill="#98A2B3"/>
<ellipse cx="777.248" cy="628.677" rx="1.12014" ry="1.11402" fill="#98A2B3"/>
<ellipse cx="466.594" cy="160.047" rx="1.12014" ry="1.11402" fill="#98A2B3"/>
<ellipse cx="466.594" cy="630.162" rx="1.12014" ry="1.11402" fill="#98A2B3"/>
<ellipse cx="1089.39" cy="158.562" rx="1.12014" ry="1.11402" fill="#98A2B3"/>
<ellipse cx="1361.22" cy="158.562" rx="1.12014" ry="1.11402" fill="#98A2B3"/>
<ellipse cx="1089.39" cy="628.677" rx="1.12014" ry="1.11402" fill="#98A2B3"/>
<ellipse cx="1361.22" cy="628.677" rx="1.12014" ry="1.11402" fill="#98A2B3"/>
<ellipse cx="154.447" cy="317.495" rx="1.12014" ry="1.11402" fill="#98A2B3"/>
<ellipse cx="777.248" cy="316.009" rx="1.12014" ry="1.11402" fill="#98A2B3"/>
<ellipse cx="466.594" cy="317.495" rx="1.12014" ry="1.11402" fill="#98A2B3"/>
<ellipse cx="1089.39" cy="316.009" rx="1.12014" ry="1.11402" fill="#98A2B3"/>
<ellipse cx="1361.22" cy="316.009" rx="1.12014" ry="1.11402" fill="#98A2B3"/>
<ellipse cx="154.447" cy="81.3232" rx="1.12014" ry="1.11402" fill="#98A2B3"/>
<ellipse cx="154.447" cy="551.438" rx="1.12014" ry="1.11402" fill="#98A2B3"/>
<ellipse cx="777.248" cy="79.8379" rx="1.12014" ry="1.11402" fill="#98A2B3"/>
<ellipse cx="777.248" cy="549.953" rx="1.12014" ry="1.11402" fill="#98A2B3"/>
<ellipse cx="466.594" cy="81.3232" rx="1.12014" ry="1.11402" fill="#98A2B3"/>
<ellipse cx="466.594" cy="551.438" rx="1.12014" ry="1.11402" fill="#98A2B3"/>
<ellipse cx="1089.39" cy="79.8379" rx="1.12014" ry="1.11402" fill="#98A2B3"/>
<ellipse cx="1361.22" cy="79.8379" rx="1.12014" ry="1.11402" fill="#98A2B3"/>
<ellipse cx="1089.39" cy="549.953" rx="1.12014" ry="1.11402" fill="#98A2B3"/>
<ellipse cx="1361.22" cy="549.953" rx="1.12014" ry="1.11402" fill="#98A2B3"/>
<ellipse cx="154.447" cy="238.771" rx="1.12014" ry="1.11402" fill="#98A2B3"/>
<ellipse cx="154.447" cy="708.886" rx="1.12014" ry="1.11402" fill="#98A2B3"/>
<ellipse cx="777.248" cy="237.286" rx="1.12014" ry="1.11402" fill="#98A2B3"/>
<ellipse cx="777.248" cy="707.401" rx="1.12014" ry="1.11402" fill="#98A2B3"/>
<ellipse cx="466.594" cy="238.771" rx="1.12014" ry="1.11402" fill="#98A2B3"/>
<ellipse cx="466.594" cy="708.886" rx="1.12014" ry="1.11402" fill="#98A2B3"/>
<ellipse cx="1089.39" cy="237.286" rx="1.12014" ry="1.11402" fill="#98A2B3"/>
<ellipse cx="1361.22" cy="237.286" rx="1.12014" ry="1.11402" fill="#98A2B3"/>
<ellipse cx="1089.39" cy="707.401" rx="1.12014" ry="1.11402" fill="#98A2B3"/>
<ellipse cx="1361.22" cy="707.401" rx="1.12014" ry="1.11402" fill="#98A2B3"/>
<ellipse cx="154.447" cy="396.219" rx="1.12014" ry="1.11402" fill="#98A2B3"/>
<ellipse cx="777.248" cy="394.733" rx="1.12014" ry="1.11402" fill="#98A2B3"/>
<ellipse cx="466.594" cy="396.219" rx="1.12014" ry="1.11402" fill="#98A2B3"/>
<ellipse cx="1089.39" cy="394.733" rx="1.12014" ry="1.11402" fill="#98A2B3"/>
<ellipse cx="1361.22" cy="394.733" rx="1.12014" ry="1.11402" fill="#98A2B3"/>
<ellipse cx="154.447" cy="41.9613" rx="1.12014" ry="1.11402" fill="#98A2B3"/>
<ellipse cx="154.447" cy="512.076" rx="1.12014" ry="1.11402" fill="#98A2B3"/>
<ellipse cx="777.248" cy="40.476" rx="1.12014" ry="1.11402" fill="#98A2B3"/>
<ellipse cx="777.248" cy="510.591" rx="1.12014" ry="1.11402" fill="#98A2B3"/>
<ellipse cx="466.594" cy="41.9613" rx="1.12014" ry="1.11402" fill="#98A2B3"/>
<ellipse cx="466.594" cy="512.076" rx="1.12014" ry="1.11402" fill="#98A2B3"/>
<ellipse cx="1089.39" cy="40.476" rx="1.12014" ry="1.11402" fill="#98A2B3"/>
<ellipse cx="1361.22" cy="40.476" rx="1.12014" ry="1.11402" fill="#98A2B3"/>
<ellipse cx="1089.39" cy="510.591" rx="1.12014" ry="1.11402" fill="#98A2B3"/>
<ellipse cx="1361.22" cy="510.591" rx="1.12014" ry="1.11402" fill="#98A2B3"/>
<ellipse cx="154.447" cy="199.409" rx="1.12014" ry="1.11402" fill="#98A2B3"/>
<ellipse cx="154.447" cy="669.524" rx="1.12014" ry="1.11402" fill="#98A2B3"/>
<ellipse cx="777.248" cy="197.924" rx="1.12014" ry="1.11402" fill="#98A2B3"/>
<ellipse cx="777.248" cy="668.039" rx="1.12014" ry="1.11402" fill="#98A2B3"/>
<ellipse cx="466.594" cy="199.409" rx="1.12014" ry="1.11402" fill="#98A2B3"/>
<ellipse cx="466.594" cy="669.524" rx="1.12014" ry="1.11402" fill="#98A2B3"/>
<ellipse cx="1089.39" cy="197.924" rx="1.12014" ry="1.11402" fill="#98A2B3"/>
<ellipse cx="1361.22" cy="197.924" rx="1.12014" ry="1.11402" fill="#98A2B3"/>
<ellipse cx="1089.39" cy="668.039" rx="1.12014" ry="1.11402" fill="#98A2B3"/>
<ellipse cx="1361.22" cy="668.039" rx="1.12014" ry="1.11402" fill="#98A2B3"/>
<ellipse cx="154.447" cy="356.857" rx="1.12014" ry="1.11402" fill="#98A2B3"/>
<ellipse cx="777.248" cy="355.371" rx="1.12014" ry="1.11402" fill="#98A2B3"/>
<ellipse cx="466.594" cy="356.857" rx="1.12014" ry="1.11402" fill="#98A2B3"/>
<ellipse cx="1089.39" cy="355.371" rx="1.12014" ry="1.11402" fill="#98A2B3"/>
<ellipse cx="1361.22" cy="355.371" rx="1.12014" ry="1.11402" fill="#98A2B3"/>
<ellipse cx="154.447" cy="120.685" rx="1.12014" ry="1.11402" fill="#98A2B3"/>
<ellipse cx="154.447" cy="590.8" rx="1.12014" ry="1.11402" fill="#98A2B3"/>
<ellipse cx="777.248" cy="119.2" rx="1.12014" ry="1.11402" fill="#98A2B3"/>
<ellipse cx="777.248" cy="589.315" rx="1.12014" ry="1.11402" fill="#98A2B3"/>
<ellipse cx="466.594" cy="120.685" rx="1.12014" ry="1.11402" fill="#98A2B3"/>
<ellipse cx="466.594" cy="590.8" rx="1.12014" ry="1.11402" fill="#98A2B3"/>
<ellipse cx="1089.39" cy="119.2" rx="1.12014" ry="1.11402" fill="#98A2B3"/>
<ellipse cx="1361.22" cy="119.2" rx="1.12014" ry="1.11402" fill="#98A2B3"/>
<ellipse cx="1089.39" cy="589.315" rx="1.12014" ry="1.11402" fill="#98A2B3"/>
<ellipse cx="1361.22" cy="589.315" rx="1.12014" ry="1.11402" fill="#98A2B3"/>
<ellipse cx="154.447" cy="278.133" rx="1.12014" ry="1.11402" fill="#98A2B3"/>
<ellipse cx="777.248" cy="276.647" rx="1.12014" ry="1.11402" fill="#98A2B3"/>
<ellipse cx="466.594" cy="278.133" rx="1.12014" ry="1.11402" fill="#98A2B3"/>
<ellipse cx="1089.39" cy="276.647" rx="1.12014" ry="1.11402" fill="#98A2B3"/>
<ellipse cx="1361.22" cy="276.647" rx="1.12014" ry="1.11402" fill="#98A2B3"/>
<ellipse cx="154.447" cy="435.581" rx="1.12014" ry="1.11402" fill="#98A2B3"/>
<ellipse cx="777.248" cy="434.095" rx="1.12014" ry="1.11402" fill="#98A2B3"/>
<ellipse cx="466.594" cy="435.581" rx="1.12014" ry="1.11402" fill="#98A2B3"/>
<ellipse cx="1089.39" cy="434.095" rx="1.12014" ry="1.11402" fill="#98A2B3"/>
<ellipse cx="1361.22" cy="434.095" rx="1.12014" ry="1.11402" fill="#98A2B3"/>
<ellipse cx="37.9518" cy="2.59937" rx="1.12014" ry="1.11402" fill="#98A2B3"/>
<ellipse cx="37.9518" cy="472.714" rx="1.12014" ry="1.11402" fill="#98A2B3"/>
<ellipse cx="660.752" cy="1.11402" rx="1.12014" ry="1.11402" fill="#98A2B3"/>
<ellipse cx="660.752" cy="471.229" rx="1.12014" ry="1.11402" fill="#98A2B3"/>
<ellipse cx="350.099" cy="2.59937" rx="1.12014" ry="1.11402" fill="#98A2B3"/>
<ellipse cx="350.099" cy="472.714" rx="1.12014" ry="1.11402" fill="#98A2B3"/>
<ellipse cx="972.9" cy="1.11402" rx="1.12014" ry="1.11402" fill="#98A2B3"/>
<ellipse cx="1244.72" cy="1.11402" rx="1.12014" ry="1.11402" fill="#98A2B3"/>
<ellipse cx="972.9" cy="471.229" rx="1.12014" ry="1.11402" fill="#98A2B3"/>
<ellipse cx="1244.72" cy="471.229" rx="1.12014" ry="1.11402" fill="#98A2B3"/>
<ellipse cx="37.9518" cy="160.047" rx="1.12014" ry="1.11402" fill="#98A2B3"/>
<ellipse cx="37.9518" cy="630.162" rx="1.12014" ry="1.11402" fill="#98A2B3"/>
<ellipse cx="660.752" cy="158.562" rx="1.12014" ry="1.11402" fill="#98A2B3"/>
<ellipse cx="660.752" cy="628.677" rx="1.12014" ry="1.11402" fill="#98A2B3"/>
<ellipse cx="350.099" cy="160.047" rx="1.12014" ry="1.11402" fill="#98A2B3"/>
<ellipse cx="350.099" cy="630.162" rx="1.12014" ry="1.11402" fill="#98A2B3"/>
<ellipse cx="972.9" cy="158.562" rx="1.12014" ry="1.11402" fill="#98A2B3"/>
<ellipse cx="1244.72" cy="158.562" rx="1.12014" ry="1.11402" fill="#98A2B3"/>
<ellipse cx="972.9" cy="628.677" rx="1.12014" ry="1.11402" fill="#98A2B3"/>
<ellipse cx="1244.72" cy="628.677" rx="1.12014" ry="1.11402" fill="#98A2B3"/>
<ellipse cx="37.9518" cy="317.495" rx="1.12014" ry="1.11402" fill="#98A2B3"/>
<ellipse cx="660.752" cy="316.009" rx="1.12014" ry="1.11402" fill="#98A2B3"/>
<ellipse cx="350.099" cy="317.495" rx="1.12014" ry="1.11402" fill="#98A2B3"/>
<ellipse cx="972.9" cy="316.009" rx="1.12014" ry="1.11402" fill="#98A2B3"/>
<ellipse cx="1244.72" cy="316.009" rx="1.12014" ry="1.11402" fill="#98A2B3"/>
<ellipse cx="37.9518" cy="81.3232" rx="1.12014" ry="1.11402" fill="#98A2B3"/>
<ellipse cx="37.9518" cy="551.438" rx="1.12014" ry="1.11402" fill="#98A2B3"/>
<ellipse cx="660.752" cy="79.8379" rx="1.12014" ry="1.11402" fill="#98A2B3"/>
<ellipse cx="660.752" cy="549.953" rx="1.12014" ry="1.11402" fill="#98A2B3"/>
<ellipse cx="350.099" cy="81.3232" rx="1.12014" ry="1.11402" fill="#98A2B3"/>
<ellipse cx="350.099" cy="551.438" rx="1.12014" ry="1.11402" fill="#98A2B3"/>
<ellipse cx="972.9" cy="79.8379" rx="1.12014" ry="1.11402" fill="#98A2B3"/>
<ellipse cx="1244.72" cy="79.8379" rx="1.12014" ry="1.11402" fill="#98A2B3"/>
<ellipse cx="972.9" cy="549.953" rx="1.12014" ry="1.11402" fill="#98A2B3"/>
<ellipse cx="1244.72" cy="549.953" rx="1.12014" ry="1.11402" fill="#98A2B3"/>
<ellipse cx="37.9518" cy="238.771" rx="1.12014" ry="1.11402" fill="#98A2B3"/>
<ellipse cx="37.9518" cy="708.886" rx="1.12014" ry="1.11402" fill="#98A2B3"/>
<ellipse cx="660.752" cy="237.286" rx="1.12014" ry="1.11402" fill="#98A2B3"/>
<ellipse cx="660.752" cy="707.401" rx="1.12014" ry="1.11402" fill="#98A2B3"/>
<ellipse cx="350.099" cy="238.771" rx="1.12014" ry="1.11402" fill="#98A2B3"/>
<ellipse cx="350.099" cy="708.886" rx="1.12014" ry="1.11402" fill="#98A2B3"/>
<ellipse cx="972.9" cy="237.286" rx="1.12014" ry="1.11402" fill="#98A2B3"/>
<ellipse cx="1244.72" cy="237.286" rx="1.12014" ry="1.11402" fill="#98A2B3"/>
<ellipse cx="972.9" cy="707.401" rx="1.12014" ry="1.11402" fill="#98A2B3"/>
<ellipse cx="1244.72" cy="707.401" rx="1.12014" ry="1.11402" fill="#98A2B3"/>
<ellipse cx="37.9518" cy="396.219" rx="1.12014" ry="1.11402" fill="#98A2B3"/>
<ellipse cx="660.752" cy="394.733" rx="1.12014" ry="1.11402" fill="#98A2B3"/>
<ellipse cx="350.099" cy="396.219" rx="1.12014" ry="1.11402" fill="#98A2B3"/>
<ellipse cx="972.9" cy="394.733" rx="1.12014" ry="1.11402" fill="#98A2B3"/>
<ellipse cx="1244.72" cy="394.733" rx="1.12014" ry="1.11402" fill="#98A2B3"/>
<ellipse cx="37.9518" cy="41.9613" rx="1.12014" ry="1.11402" fill="#98A2B3"/>
<ellipse cx="37.9518" cy="512.076" rx="1.12014" ry="1.11402" fill="#98A2B3"/>
<ellipse cx="660.752" cy="40.476" rx="1.12014" ry="1.11402" fill="#98A2B3"/>
<ellipse cx="660.752" cy="510.591" rx="1.12014" ry="1.11402" fill="#98A2B3"/>
<ellipse cx="350.099" cy="41.9613" rx="1.12014" ry="1.11402" fill="#98A2B3"/>
<ellipse cx="350.099" cy="512.076" rx="1.12014" ry="1.11402" fill="#98A2B3"/>
<ellipse cx="972.9" cy="40.476" rx="1.12014" ry="1.11402" fill="#98A2B3"/>
<ellipse cx="1244.72" cy="40.476" rx="1.12014" ry="1.11402" fill="#98A2B3"/>
<ellipse cx="972.9" cy="510.591" rx="1.12014" ry="1.11402" fill="#98A2B3"/>
<ellipse cx="1244.72" cy="510.591" rx="1.12014" ry="1.11402" fill="#98A2B3"/>
<ellipse cx="37.9518" cy="199.409" rx="1.12014" ry="1.11402" fill="#98A2B3"/>
<ellipse cx="37.9518" cy="669.524" rx="1.12014" ry="1.11402" fill="#98A2B3"/>
<ellipse cx="660.752" cy="197.924" rx="1.12014" ry="1.11402" fill="#98A2B3"/>
<ellipse cx="660.752" cy="668.039" rx="1.12014" ry="1.11402" fill="#98A2B3"/>
<ellipse cx="350.099" cy="199.409" rx="1.12014" ry="1.11402" fill="#98A2B3"/>
<ellipse cx="350.099" cy="669.524" rx="1.12014" ry="1.11402" fill="#98A2B3"/>
<ellipse cx="972.9" cy="197.924" rx="1.12014" ry="1.11402" fill="#98A2B3"/>
<ellipse cx="1244.72" cy="197.924" rx="1.12014" ry="1.11402" fill="#98A2B3"/>
<ellipse cx="972.9" cy="668.039" rx="1.12014" ry="1.11402" fill="#98A2B3"/>
<ellipse cx="1244.72" cy="668.039" rx="1.12014" ry="1.11402" fill="#98A2B3"/>
<ellipse cx="37.9518" cy="356.857" rx="1.12014" ry="1.11402" fill="#98A2B3"/>
<ellipse cx="660.752" cy="355.371" rx="1.12014" ry="1.11402" fill="#98A2B3"/>
<ellipse cx="350.099" cy="356.857" rx="1.12014" ry="1.11402" fill="#98A2B3"/>
<ellipse cx="972.9" cy="355.371" rx="1.12014" ry="1.11402" fill="#98A2B3"/>
<ellipse cx="1244.72" cy="355.371" rx="1.12014" ry="1.11402" fill="#98A2B3"/>
<ellipse cx="37.9518" cy="120.685" rx="1.12014" ry="1.11402" fill="#98A2B3"/>
<ellipse cx="37.9518" cy="590.8" rx="1.12014" ry="1.11402" fill="#98A2B3"/>
<ellipse cx="660.752" cy="119.2" rx="1.12014" ry="1.11402" fill="#98A2B3"/>
<ellipse cx="660.752" cy="589.315" rx="1.12014" ry="1.11402" fill="#98A2B3"/>
<ellipse cx="350.099" cy="120.685" rx="1.12014" ry="1.11402" fill="#98A2B3"/>
<ellipse cx="350.099" cy="590.8" rx="1.12014" ry="1.11402" fill="#98A2B3"/>
<ellipse cx="972.9" cy="119.2" rx="1.12014" ry="1.11402" fill="#98A2B3"/>
<ellipse cx="1244.72" cy="119.2" rx="1.12014" ry="1.11402" fill="#98A2B3"/>
<ellipse cx="972.9" cy="589.315" rx="1.12014" ry="1.11402" fill="#98A2B3"/>
<ellipse cx="1244.72" cy="589.315" rx="1.12014" ry="1.11402" fill="#98A2B3"/>
<ellipse cx="37.9518" cy="278.133" rx="1.12014" ry="1.11402" fill="#98A2B3"/>
<ellipse cx="660.752" cy="276.647" rx="1.12014" ry="1.11402" fill="#98A2B3"/>
<ellipse cx="350.099" cy="278.133" rx="1.12014" ry="1.11402" fill="#98A2B3"/>
<ellipse cx="972.9" cy="276.647" rx="1.12014" ry="1.11402" fill="#98A2B3"/>
<ellipse cx="1244.72" cy="276.647" rx="1.12014" ry="1.11402" fill="#98A2B3"/>
<ellipse cx="37.9518" cy="435.581" rx="1.12014" ry="1.11402" fill="#98A2B3"/>
<ellipse cx="660.752" cy="434.095" rx="1.12014" ry="1.11402" fill="#98A2B3"/>
<ellipse cx="350.099" cy="435.581" rx="1.12014" ry="1.11402" fill="#98A2B3"/>
<ellipse cx="972.9" cy="434.095" rx="1.12014" ry="1.11402" fill="#98A2B3"/>
<ellipse cx="1244.72" cy="434.095" rx="1.12014" ry="1.11402" fill="#98A2B3"/>
<ellipse cx="193.279" cy="2.59937" rx="1.12014" ry="1.11402" fill="#98A2B3"/>
<ellipse cx="193.279" cy="472.714" rx="1.12014" ry="1.11402" fill="#98A2B3"/>
<ellipse cx="816.079" cy="1.11402" rx="1.12014" ry="1.11402" fill="#98A2B3"/>
<ellipse cx="816.079" cy="471.229" rx="1.12014" ry="1.11402" fill="#98A2B3"/>
<ellipse cx="505.426" cy="2.59937" rx="1.12014" ry="1.11402" fill="#98A2B3"/>
<ellipse cx="505.426" cy="472.714" rx="1.12014" ry="1.11402" fill="#98A2B3"/>
<ellipse cx="1128.23" cy="1.11402" rx="1.12014" ry="1.11402" fill="#98A2B3"/>
<ellipse cx="1400.05" cy="1.11402" rx="1.12014" ry="1.11402" fill="#98A2B3"/>
<ellipse cx="1128.23" cy="471.229" rx="1.12014" ry="1.11402" fill="#98A2B3"/>
<ellipse cx="1400.05" cy="471.229" rx="1.12014" ry="1.11402" fill="#98A2B3"/>
<ellipse cx="193.279" cy="160.047" rx="1.12014" ry="1.11402" fill="#98A2B3"/>
<ellipse cx="193.279" cy="630.162" rx="1.12014" ry="1.11402" fill="#98A2B3"/>
<ellipse cx="816.079" cy="158.562" rx="1.12014" ry="1.11402" fill="#98A2B3"/>
<ellipse cx="816.079" cy="628.677" rx="1.12014" ry="1.11402" fill="#98A2B3"/>
<ellipse cx="505.426" cy="160.047" rx="1.12014" ry="1.11402" fill="#98A2B3"/>
<ellipse cx="505.426" cy="630.162" rx="1.12014" ry="1.11402" fill="#98A2B3"/>
<ellipse cx="1128.23" cy="158.562" rx="1.12014" ry="1.11402" fill="#98A2B3"/>
<ellipse cx="1400.05" cy="158.562" rx="1.12014" ry="1.11402" fill="#98A2B3"/>
<ellipse cx="1128.23" cy="628.677" rx="1.12014" ry="1.11402" fill="#98A2B3"/>
<ellipse cx="1400.05" cy="628.677" rx="1.12014" ry="1.11402" fill="#98A2B3"/>
<ellipse cx="193.279" cy="317.495" rx="1.12014" ry="1.11402" fill="#98A2B3"/>
<ellipse cx="816.079" cy="316.009" rx="1.12014" ry="1.11402" fill="#98A2B3"/>
<ellipse cx="505.426" cy="317.495" rx="1.12014" ry="1.11402" fill="#98A2B3"/>
<ellipse cx="1128.23" cy="316.009" rx="1.12014" ry="1.11402" fill="#98A2B3"/>
<ellipse cx="1400.05" cy="316.009" rx="1.12014" ry="1.11402" fill="#98A2B3"/>
<ellipse cx="193.279" cy="81.3232" rx="1.12014" ry="1.11402" fill="#98A2B3"/>
<ellipse cx="193.279" cy="551.438" rx="1.12014" ry="1.11402" fill="#98A2B3"/>
<ellipse cx="816.079" cy="79.8379" rx="1.12014" ry="1.11402" fill="#98A2B3"/>
<ellipse cx="816.079" cy="549.953" rx="1.12014" ry="1.11402" fill="#98A2B3"/>
<ellipse cx="505.426" cy="81.3232" rx="1.12014" ry="1.11402" fill="#98A2B3"/>
<ellipse cx="505.426" cy="551.438" rx="1.12014" ry="1.11402" fill="#98A2B3"/>
<ellipse cx="1128.23" cy="79.8379" rx="1.12014" ry="1.11402" fill="#98A2B3"/>
<ellipse cx="1400.05" cy="79.8379" rx="1.12014" ry="1.11402" fill="#98A2B3"/>
<ellipse cx="1128.23" cy="549.953" rx="1.12014" ry="1.11402" fill="#98A2B3"/>
<ellipse cx="1400.05" cy="549.953" rx="1.12014" ry="1.11402" fill="#98A2B3"/>
<ellipse cx="193.279" cy="238.771" rx="1.12014" ry="1.11402" fill="#98A2B3"/>
<ellipse cx="193.279" cy="708.886" rx="1.12014" ry="1.11402" fill="#98A2B3"/>
<ellipse cx="816.079" cy="237.286" rx="1.12014" ry="1.11402" fill="#98A2B3"/>
<ellipse cx="816.079" cy="707.401" rx="1.12014" ry="1.11402" fill="#98A2B3"/>
<ellipse cx="505.426" cy="238.771" rx="1.12014" ry="1.11402" fill="#98A2B3"/>
<ellipse cx="505.426" cy="708.886" rx="1.12014" ry="1.11402" fill="#98A2B3"/>
<ellipse cx="1128.23" cy="237.286" rx="1.12014" ry="1.11402" fill="#98A2B3"/>
<ellipse cx="1400.05" cy="237.286" rx="1.12014" ry="1.11402" fill="#98A2B3"/>
<ellipse cx="1128.23" cy="707.401" rx="1.12014" ry="1.11402" fill="#98A2B3"/>
<ellipse cx="1400.05" cy="707.401" rx="1.12014" ry="1.11402" fill="#98A2B3"/>
<ellipse cx="193.279" cy="396.219" rx="1.12014" ry="1.11402" fill="#98A2B3"/>
<ellipse cx="816.079" cy="394.733" rx="1.12014" ry="1.11402" fill="#98A2B3"/>
<ellipse cx="505.426" cy="396.219" rx="1.12014" ry="1.11402" fill="#98A2B3"/>
<ellipse cx="1128.23" cy="394.733" rx="1.12014" ry="1.11402" fill="#98A2B3"/>
<ellipse cx="1400.05" cy="394.733" rx="1.12014" ry="1.11402" fill="#98A2B3"/>
<ellipse cx="193.279" cy="41.9613" rx="1.12014" ry="1.11402" fill="#98A2B3"/>
<ellipse cx="193.279" cy="512.076" rx="1.12014" ry="1.11402" fill="#98A2B3"/>
<ellipse cx="816.079" cy="40.476" rx="1.12014" ry="1.11402" fill="#98A2B3"/>
<ellipse cx="816.079" cy="510.591" rx="1.12014" ry="1.11402" fill="#98A2B3"/>
<ellipse cx="505.426" cy="41.9613" rx="1.12014" ry="1.11402" fill="#98A2B3"/>
<ellipse cx="505.426" cy="512.076" rx="1.12014" ry="1.11402" fill="#98A2B3"/>
<ellipse cx="1128.23" cy="40.476" rx="1.12014" ry="1.11402" fill="#98A2B3"/>
<ellipse cx="1400.05" cy="40.476" rx="1.12014" ry="1.11402" fill="#98A2B3"/>
<ellipse cx="1128.23" cy="510.591" rx="1.12014" ry="1.11402" fill="#98A2B3"/>
<ellipse cx="1400.05" cy="510.591" rx="1.12014" ry="1.11402" fill="#98A2B3"/>
<ellipse cx="193.279" cy="199.409" rx="1.12014" ry="1.11402" fill="#98A2B3"/>
<ellipse cx="193.279" cy="669.524" rx="1.12014" ry="1.11402" fill="#98A2B3"/>
<ellipse cx="816.079" cy="197.924" rx="1.12014" ry="1.11402" fill="#98A2B3"/>
<ellipse cx="816.079" cy="668.039" rx="1.12014" ry="1.11402" fill="#98A2B3"/>
<ellipse cx="505.426" cy="199.409" rx="1.12014" ry="1.11402" fill="#98A2B3"/>
<ellipse cx="505.426" cy="669.524" rx="1.12014" ry="1.11402" fill="#98A2B3"/>
<ellipse cx="1128.23" cy="197.924" rx="1.12014" ry="1.11402" fill="#98A2B3"/>
<ellipse cx="1400.05" cy="197.924" rx="1.12014" ry="1.11402" fill="#98A2B3"/>
<ellipse cx="1128.23" cy="668.039" rx="1.12014" ry="1.11402" fill="#98A2B3"/>
<ellipse cx="1400.05" cy="668.039" rx="1.12014" ry="1.11402" fill="#98A2B3"/>
<ellipse cx="193.279" cy="356.857" rx="1.12014" ry="1.11402" fill="#98A2B3"/>
<ellipse cx="816.079" cy="355.371" rx="1.12014" ry="1.11402" fill="#98A2B3"/>
<ellipse cx="505.426" cy="356.857" rx="1.12014" ry="1.11402" fill="#98A2B3"/>
<ellipse cx="1128.23" cy="355.371" rx="1.12014" ry="1.11402" fill="#98A2B3"/>
<ellipse cx="1400.05" cy="355.371" rx="1.12014" ry="1.11402" fill="#98A2B3"/>
<ellipse cx="193.279" cy="120.685" rx="1.12014" ry="1.11402" fill="#98A2B3"/>
<ellipse cx="193.279" cy="590.8" rx="1.12014" ry="1.11402" fill="#98A2B3"/>
<ellipse cx="816.079" cy="119.2" rx="1.12014" ry="1.11402" fill="#98A2B3"/>
<ellipse cx="816.079" cy="589.315" rx="1.12014" ry="1.11402" fill="#98A2B3"/>
<ellipse cx="505.426" cy="120.685" rx="1.12014" ry="1.11402" fill="#98A2B3"/>
<ellipse cx="505.426" cy="590.8" rx="1.12014" ry="1.11402" fill="#98A2B3"/>
<ellipse cx="1128.23" cy="119.2" rx="1.12014" ry="1.11402" fill="#98A2B3"/>
<ellipse cx="1400.05" cy="119.2" rx="1.12014" ry="1.11402" fill="#98A2B3"/>
<ellipse cx="1128.23" cy="589.315" rx="1.12014" ry="1.11402" fill="#98A2B3"/>
<ellipse cx="1400.05" cy="589.315" rx="1.12014" ry="1.11402" fill="#98A2B3"/>
<ellipse cx="193.279" cy="278.133" rx="1.12014" ry="1.11402" fill="#98A2B3"/>
<ellipse cx="816.079" cy="276.647" rx="1.12014" ry="1.11402" fill="#98A2B3"/>
<ellipse cx="505.426" cy="278.133" rx="1.12014" ry="1.11402" fill="#98A2B3"/>
<ellipse cx="1128.23" cy="276.647" rx="1.12014" ry="1.11402" fill="#98A2B3"/>
<ellipse cx="1400.05" cy="276.647" rx="1.12014" ry="1.11402" fill="#98A2B3"/>
<ellipse cx="193.279" cy="435.581" rx="1.12014" ry="1.11402" fill="#98A2B3"/>
<ellipse cx="816.079" cy="434.095" rx="1.12014" ry="1.11402" fill="#98A2B3"/>
<ellipse cx="505.426" cy="435.581" rx="1.12014" ry="1.11402" fill="#98A2B3"/>
<ellipse cx="1128.23" cy="434.095" rx="1.12014" ry="1.11402" fill="#98A2B3"/>
<ellipse cx="1400.05" cy="434.095" rx="1.12014" ry="1.11402" fill="#98A2B3"/>
<ellipse cx="76.7835" cy="2.59937" rx="1.12014" ry="1.11402" fill="#98A2B3"/>
<ellipse cx="76.7835" cy="472.714" rx="1.12014" ry="1.11402" fill="#98A2B3"/>
<ellipse cx="699.584" cy="1.11402" rx="1.12014" ry="1.11402" fill="#98A2B3"/>
<ellipse cx="699.584" cy="471.229" rx="1.12014" ry="1.11402" fill="#98A2B3"/>
<ellipse cx="388.931" cy="2.59937" rx="1.12014" ry="1.11402" fill="#98A2B3"/>
<ellipse cx="388.931" cy="472.714" rx="1.12014" ry="1.11402" fill="#98A2B3"/>
<ellipse cx="1011.73" cy="1.11402" rx="1.12014" ry="1.11402" fill="#98A2B3"/>
<ellipse cx="1283.55" cy="1.11402" rx="1.12014" ry="1.11402" fill="#98A2B3"/>
<ellipse cx="1011.73" cy="471.229" rx="1.12014" ry="1.11402" fill="#98A2B3"/>
<ellipse cx="1283.55" cy="471.229" rx="1.12014" ry="1.11402" fill="#98A2B3"/>
<ellipse cx="76.7835" cy="160.047" rx="1.12014" ry="1.11402" fill="#98A2B3"/>
<ellipse cx="76.7835" cy="630.162" rx="1.12014" ry="1.11402" fill="#98A2B3"/>
<ellipse cx="699.584" cy="158.562" rx="1.12014" ry="1.11402" fill="#98A2B3"/>
<ellipse cx="699.584" cy="628.677" rx="1.12014" ry="1.11402" fill="#98A2B3"/>
<ellipse cx="388.931" cy="160.047" rx="1.12014" ry="1.11402" fill="#98A2B3"/>
<ellipse cx="388.931" cy="630.162" rx="1.12014" ry="1.11402" fill="#98A2B3"/>
<ellipse cx="1011.73" cy="158.562" rx="1.12014" ry="1.11402" fill="#98A2B3"/>
<ellipse cx="1283.55" cy="158.562" rx="1.12014" ry="1.11402" fill="#98A2B3"/>
<ellipse cx="1011.73" cy="628.677" rx="1.12014" ry="1.11402" fill="#98A2B3"/>
<ellipse cx="1283.55" cy="628.677" rx="1.12014" ry="1.11402" fill="#98A2B3"/>
<ellipse cx="76.7835" cy="317.495" rx="1.12014" ry="1.11402" fill="#98A2B3"/>
<ellipse cx="699.584" cy="316.009" rx="1.12014" ry="1.11402" fill="#98A2B3"/>
<ellipse cx="388.931" cy="317.495" rx="1.12014" ry="1.11402" fill="#98A2B3"/>
<ellipse cx="1011.73" cy="316.009" rx="1.12014" ry="1.11402" fill="#98A2B3"/>
<ellipse cx="1283.55" cy="316.009" rx="1.12014" ry="1.11402" fill="#98A2B3"/>
<ellipse cx="76.7835" cy="81.3232" rx="1.12014" ry="1.11402" fill="#98A2B3"/>
<ellipse cx="76.7835" cy="551.438" rx="1.12014" ry="1.11402" fill="#98A2B3"/>
<ellipse cx="699.584" cy="79.8379" rx="1.12014" ry="1.11402" fill="#98A2B3"/>
<ellipse cx="699.584" cy="549.953" rx="1.12014" ry="1.11402" fill="#98A2B3"/>
<ellipse cx="388.931" cy="81.3232" rx="1.12014" ry="1.11402" fill="#98A2B3"/>
<ellipse cx="388.931" cy="551.438" rx="1.12014" ry="1.11402" fill="#98A2B3"/>
<ellipse cx="1011.73" cy="79.8379" rx="1.12014" ry="1.11402" fill="#98A2B3"/>
<ellipse cx="1283.55" cy="79.8379" rx="1.12014" ry="1.11402" fill="#98A2B3"/>
<ellipse cx="1011.73" cy="549.953" rx="1.12014" ry="1.11402" fill="#98A2B3"/>
<ellipse cx="1283.55" cy="549.953" rx="1.12014" ry="1.11402" fill="#98A2B3"/>
<ellipse cx="76.7835" cy="238.771" rx="1.12014" ry="1.11402" fill="#98A2B3"/>
<ellipse cx="76.7835" cy="708.886" rx="1.12014" ry="1.11402" fill="#98A2B3"/>
<ellipse cx="699.584" cy="237.286" rx="1.12014" ry="1.11402" fill="#98A2B3"/>
<ellipse cx="699.584" cy="707.401" rx="1.12014" ry="1.11402" fill="#98A2B3"/>
<ellipse cx="388.931" cy="238.771" rx="1.12014" ry="1.11402" fill="#98A2B3"/>
<ellipse cx="388.931" cy="708.886" rx="1.12014" ry="1.11402" fill="#98A2B3"/>
<ellipse cx="1011.73" cy="237.286" rx="1.12014" ry="1.11402" fill="#98A2B3"/>
<ellipse cx="1283.55" cy="237.286" rx="1.12014" ry="1.11402" fill="#98A2B3"/>
<ellipse cx="1011.73" cy="707.401" rx="1.12014" ry="1.11402" fill="#98A2B3"/>
<ellipse cx="1283.55" cy="707.401" rx="1.12014" ry="1.11402" fill="#98A2B3"/>
<ellipse cx="76.7835" cy="396.219" rx="1.12014" ry="1.11402" fill="#98A2B3"/>
<ellipse cx="699.584" cy="394.733" rx="1.12014" ry="1.11402" fill="#98A2B3"/>
<ellipse cx="388.931" cy="396.219" rx="1.12014" ry="1.11402" fill="#98A2B3"/>
<ellipse cx="1011.73" cy="394.733" rx="1.12014" ry="1.11402" fill="#98A2B3"/>
<ellipse cx="1283.55" cy="394.733" rx="1.12014" ry="1.11402" fill="#98A2B3"/>
<ellipse cx="76.7835" cy="41.9613" rx="1.12014" ry="1.11402" fill="#98A2B3"/>
<ellipse cx="76.7835" cy="512.076" rx="1.12014" ry="1.11402" fill="#98A2B3"/>
<ellipse cx="699.584" cy="40.476" rx="1.12014" ry="1.11402" fill="#98A2B3"/>
<ellipse cx="699.584" cy="510.591" rx="1.12014" ry="1.11402" fill="#98A2B3"/>
<ellipse cx="388.931" cy="41.9613" rx="1.12014" ry="1.11402" fill="#98A2B3"/>
<ellipse cx="388.931" cy="512.076" rx="1.12014" ry="1.11402" fill="#98A2B3"/>
<ellipse cx="1011.73" cy="40.476" rx="1.12014" ry="1.11402" fill="#98A2B3"/>
<ellipse cx="1283.55" cy="40.476" rx="1.12014" ry="1.11402" fill="#98A2B3"/>
<ellipse cx="1011.73" cy="510.591" rx="1.12014" ry="1.11402" fill="#98A2B3"/>
<ellipse cx="1283.55" cy="510.591" rx="1.12014" ry="1.11402" fill="#98A2B3"/>
<ellipse cx="76.7835" cy="199.409" rx="1.12014" ry="1.11402" fill="#98A2B3"/>
<ellipse cx="76.7835" cy="669.524" rx="1.12014" ry="1.11402" fill="#98A2B3"/>
<ellipse cx="699.584" cy="197.924" rx="1.12014" ry="1.11402" fill="#98A2B3"/>
<ellipse cx="699.584" cy="668.039" rx="1.12014" ry="1.11402" fill="#98A2B3"/>
<ellipse cx="388.931" cy="199.409" rx="1.12014" ry="1.11402" fill="#98A2B3"/>
<ellipse cx="388.931" cy="669.524" rx="1.12014" ry="1.11402" fill="#98A2B3"/>
<ellipse cx="1011.73" cy="197.924" rx="1.12014" ry="1.11402" fill="#98A2B3"/>
<ellipse cx="1283.55" cy="197.924" rx="1.12014" ry="1.11402" fill="#98A2B3"/>
<ellipse cx="1011.73" cy="668.039" rx="1.12014" ry="1.11402" fill="#98A2B3"/>
<ellipse cx="1283.55" cy="668.039" rx="1.12014" ry="1.11402" fill="#98A2B3"/>
<ellipse cx="76.7835" cy="356.857" rx="1.12014" ry="1.11402" fill="#98A2B3"/>
<ellipse cx="699.584" cy="355.371" rx="1.12014" ry="1.11402" fill="#98A2B3"/>
<ellipse cx="388.931" cy="356.857" rx="1.12014" ry="1.11402" fill="#98A2B3"/>
<ellipse cx="1011.73" cy="355.371" rx="1.12014" ry="1.11402" fill="#98A2B3"/>
<ellipse cx="1283.55" cy="355.371" rx="1.12014" ry="1.11402" fill="#98A2B3"/>
<ellipse cx="76.7835" cy="120.685" rx="1.12014" ry="1.11402" fill="#98A2B3"/>
<ellipse cx="76.7835" cy="590.8" rx="1.12014" ry="1.11402" fill="#98A2B3"/>
<ellipse cx="699.584" cy="119.2" rx="1.12014" ry="1.11402" fill="#98A2B3"/>
<ellipse cx="699.584" cy="589.315" rx="1.12014" ry="1.11402" fill="#98A2B3"/>
<ellipse cx="388.931" cy="120.685" rx="1.12014" ry="1.11402" fill="#98A2B3"/>
<ellipse cx="388.931" cy="590.8" rx="1.12014" ry="1.11402" fill="#98A2B3"/>
<ellipse cx="1011.73" cy="119.2" rx="1.12014" ry="1.11402" fill="#98A2B3"/>
<ellipse cx="1283.55" cy="119.2" rx="1.12014" ry="1.11402" fill="#98A2B3"/>
<ellipse cx="1011.73" cy="589.315" rx="1.12014" ry="1.11402" fill="#98A2B3"/>
<ellipse cx="1283.55" cy="589.315" rx="1.12014" ry="1.11402" fill="#98A2B3"/>
<ellipse cx="76.7835" cy="278.133" rx="1.12014" ry="1.11402" fill="#98A2B3"/>
<ellipse cx="699.584" cy="276.647" rx="1.12014" ry="1.11402" fill="#98A2B3"/>
<ellipse cx="388.931" cy="278.133" rx="1.12014" ry="1.11402" fill="#98A2B3"/>
<ellipse cx="1011.73" cy="276.647" rx="1.12014" ry="1.11402" fill="#98A2B3"/>
<ellipse cx="1283.55" cy="276.647" rx="1.12014" ry="1.11402" fill="#98A2B3"/>
<ellipse cx="76.7835" cy="435.581" rx="1.12014" ry="1.11402" fill="#98A2B3"/>
<ellipse cx="699.584" cy="434.095" rx="1.12014" ry="1.11402" fill="#98A2B3"/>
<ellipse cx="388.931" cy="435.581" rx="1.12014" ry="1.11402" fill="#98A2B3"/>
<ellipse cx="1011.73" cy="434.095" rx="1.12014" ry="1.11402" fill="#98A2B3"/>
<ellipse cx="1283.55" cy="434.095" rx="1.12014" ry="1.11402" fill="#98A2B3"/>
<ellipse cx="232.11" cy="2.59937" rx="1.12014" ry="1.11402" fill="#98A2B3"/>
<ellipse cx="232.11" cy="472.714" rx="1.12014" ry="1.11402" fill="#98A2B3"/>
<ellipse cx="854.911" cy="1.11402" rx="1.12014" ry="1.11402" fill="#98A2B3"/>
<ellipse cx="854.911" cy="471.229" rx="1.12014" ry="1.11402" fill="#98A2B3"/>
<ellipse cx="544.257" cy="2.59937" rx="1.12014" ry="1.11402" fill="#98A2B3"/>
<ellipse cx="544.257" cy="472.714" rx="1.12014" ry="1.11402" fill="#98A2B3"/>
<ellipse cx="1167.06" cy="1.11402" rx="1.12014" ry="1.11402" fill="#98A2B3"/>
<ellipse cx="1438.88" cy="1.11402" rx="1.12014" ry="1.11402" fill="#98A2B3"/>
<ellipse cx="1167.06" cy="471.229" rx="1.12014" ry="1.11402" fill="#98A2B3"/>
<ellipse cx="1438.88" cy="471.229" rx="1.12014" ry="1.11402" fill="#98A2B3"/>
<ellipse cx="232.11" cy="160.047" rx="1.12014" ry="1.11402" fill="#98A2B3"/>
<ellipse cx="232.11" cy="630.162" rx="1.12014" ry="1.11402" fill="#98A2B3"/>
<ellipse cx="854.911" cy="158.562" rx="1.12014" ry="1.11402" fill="#98A2B3"/>
<ellipse cx="854.911" cy="628.677" rx="1.12014" ry="1.11402" fill="#98A2B3"/>
<ellipse cx="544.257" cy="160.047" rx="1.12014" ry="1.11402" fill="#98A2B3"/>
<ellipse cx="544.257" cy="630.162" rx="1.12014" ry="1.11402" fill="#98A2B3"/>
<ellipse cx="1167.06" cy="158.562" rx="1.12014" ry="1.11402" fill="#98A2B3"/>
<ellipse cx="1438.88" cy="158.562" rx="1.12014" ry="1.11402" fill="#98A2B3"/>
<ellipse cx="1167.06" cy="628.677" rx="1.12014" ry="1.11402" fill="#98A2B3"/>
<ellipse cx="1438.88" cy="628.677" rx="1.12014" ry="1.11402" fill="#98A2B3"/>
<ellipse cx="232.11" cy="317.495" rx="1.12014" ry="1.11402" fill="#98A2B3"/>
<ellipse cx="854.911" cy="316.009" rx="1.12014" ry="1.11402" fill="#98A2B3"/>
<ellipse cx="544.257" cy="317.495" rx="1.12014" ry="1.11402" fill="#98A2B3"/>
<ellipse cx="1167.06" cy="316.009" rx="1.12014" ry="1.11402" fill="#98A2B3"/>
<ellipse cx="1438.88" cy="316.009" rx="1.12014" ry="1.11402" fill="#98A2B3"/>
<ellipse cx="232.11" cy="81.3232" rx="1.12014" ry="1.11402" fill="#98A2B3"/>
<ellipse cx="232.11" cy="551.438" rx="1.12014" ry="1.11402" fill="#98A2B3"/>
<ellipse cx="854.911" cy="79.8379" rx="1.12014" ry="1.11402" fill="#98A2B3"/>
<ellipse cx="854.911" cy="549.953" rx="1.12014" ry="1.11402" fill="#98A2B3"/>
<ellipse cx="544.257" cy="81.3232" rx="1.12014" ry="1.11402" fill="#98A2B3"/>
<ellipse cx="544.257" cy="551.438" rx="1.12014" ry="1.11402" fill="#98A2B3"/>
<ellipse cx="1167.06" cy="79.8379" rx="1.12014" ry="1.11402" fill="#98A2B3"/>
<ellipse cx="1438.88" cy="79.8379" rx="1.12014" ry="1.11402" fill="#98A2B3"/>
<ellipse cx="1167.06" cy="549.953" rx="1.12014" ry="1.11402" fill="#98A2B3"/>
<ellipse cx="1438.88" cy="549.953" rx="1.12014" ry="1.11402" fill="#98A2B3"/>
<ellipse cx="232.11" cy="238.771" rx="1.12014" ry="1.11402" fill="#98A2B3"/>
<ellipse cx="232.11" cy="708.886" rx="1.12014" ry="1.11402" fill="#98A2B3"/>
<ellipse cx="854.911" cy="237.286" rx="1.12014" ry="1.11402" fill="#98A2B3"/>
<ellipse cx="854.911" cy="707.401" rx="1.12014" ry="1.11402" fill="#98A2B3"/>
<ellipse cx="544.257" cy="238.771" rx="1.12014" ry="1.11402" fill="#98A2B3"/>
<ellipse cx="544.257" cy="708.886" rx="1.12014" ry="1.11402" fill="#98A2B3"/>
<ellipse cx="1167.06" cy="237.286" rx="1.12014" ry="1.11402" fill="#98A2B3"/>
<ellipse cx="1438.88" cy="237.286" rx="1.12014" ry="1.11402" fill="#98A2B3"/>
<ellipse cx="1167.06" cy="707.401" rx="1.12014" ry="1.11402" fill="#98A2B3"/>
<ellipse cx="1438.88" cy="707.401" rx="1.12014" ry="1.11402" fill="#98A2B3"/>
<ellipse cx="232.11" cy="396.219" rx="1.12014" ry="1.11402" fill="#98A2B3"/>
<ellipse cx="854.911" cy="394.733" rx="1.12014" ry="1.11402" fill="#98A2B3"/>
<ellipse cx="544.257" cy="396.219" rx="1.12014" ry="1.11402" fill="#98A2B3"/>
<ellipse cx="1167.06" cy="394.733" rx="1.12014" ry="1.11402" fill="#98A2B3"/>
<ellipse cx="1438.88" cy="394.733" rx="1.12014" ry="1.11402" fill="#98A2B3"/>
<ellipse cx="232.11" cy="41.9613" rx="1.12014" ry="1.11402" fill="#98A2B3"/>
<ellipse cx="232.11" cy="512.076" rx="1.12014" ry="1.11402" fill="#98A2B3"/>
<ellipse cx="854.911" cy="40.476" rx="1.12014" ry="1.11402" fill="#98A2B3"/>
<ellipse cx="854.911" cy="510.591" rx="1.12014" ry="1.11402" fill="#98A2B3"/>
<ellipse cx="544.257" cy="41.9613" rx="1.12014" ry="1.11402" fill="#98A2B3"/>
<ellipse cx="544.257" cy="512.076" rx="1.12014" ry="1.11402" fill="#98A2B3"/>
<ellipse cx="1167.06" cy="40.476" rx="1.12014" ry="1.11402" fill="#98A2B3"/>
<ellipse cx="1438.88" cy="40.476" rx="1.12014" ry="1.11402" fill="#98A2B3"/>
<ellipse cx="1167.06" cy="510.591" rx="1.12014" ry="1.11402" fill="#98A2B3"/>
<ellipse cx="1438.88" cy="510.591" rx="1.12014" ry="1.11402" fill="#98A2B3"/>
<ellipse cx="232.11" cy="199.409" rx="1.12014" ry="1.11402" fill="#98A2B3"/>
<ellipse cx="232.11" cy="669.524" rx="1.12014" ry="1.11402" fill="#98A2B3"/>
<ellipse cx="854.911" cy="197.924" rx="1.12014" ry="1.11402" fill="#98A2B3"/>
<ellipse cx="854.911" cy="668.039" rx="1.12014" ry="1.11402" fill="#98A2B3"/>
<ellipse cx="544.257" cy="199.409" rx="1.12014" ry="1.11402" fill="#98A2B3"/>
<ellipse cx="544.257" cy="669.524" rx="1.12014" ry="1.11402" fill="#98A2B3"/>
<ellipse cx="1167.06" cy="197.924" rx="1.12014" ry="1.11402" fill="#98A2B3"/>
<ellipse cx="1438.88" cy="197.924" rx="1.12014" ry="1.11402" fill="#98A2B3"/>
<ellipse cx="1167.06" cy="668.039" rx="1.12014" ry="1.11402" fill="#98A2B3"/>
<ellipse cx="1438.88" cy="668.039" rx="1.12014" ry="1.11402" fill="#98A2B3"/>
<ellipse cx="232.11" cy="356.857" rx="1.12014" ry="1.11402" fill="#98A2B3"/>
<ellipse cx="854.911" cy="355.371" rx="1.12014" ry="1.11402" fill="#98A2B3"/>
<ellipse cx="544.257" cy="356.857" rx="1.12014" ry="1.11402" fill="#98A2B3"/>
<ellipse cx="1167.06" cy="355.371" rx="1.12014" ry="1.11402" fill="#98A2B3"/>
<ellipse cx="1438.88" cy="355.371" rx="1.12014" ry="1.11402" fill="#98A2B3"/>
<ellipse cx="232.11" cy="120.685" rx="1.12014" ry="1.11402" fill="#98A2B3"/>
<ellipse cx="232.11" cy="590.8" rx="1.12014" ry="1.11402" fill="#98A2B3"/>
<ellipse cx="854.911" cy="119.2" rx="1.12014" ry="1.11402" fill="#98A2B3"/>
<ellipse cx="854.911" cy="589.315" rx="1.12014" ry="1.11402" fill="#98A2B3"/>
<ellipse cx="544.257" cy="120.685" rx="1.12014" ry="1.11402" fill="#98A2B3"/>
<ellipse cx="544.257" cy="590.8" rx="1.12014" ry="1.11402" fill="#98A2B3"/>
<ellipse cx="1167.06" cy="119.2" rx="1.12014" ry="1.11402" fill="#98A2B3"/>
<ellipse cx="1438.88" cy="119.2" rx="1.12014" ry="1.11402" fill="#98A2B3"/>
<ellipse cx="1167.06" cy="589.315" rx="1.12014" ry="1.11402" fill="#98A2B3"/>
<ellipse cx="1438.88" cy="589.315" rx="1.12014" ry="1.11402" fill="#98A2B3"/>
<ellipse cx="232.11" cy="278.133" rx="1.12014" ry="1.11402" fill="#98A2B3"/>
<ellipse cx="854.911" cy="276.647" rx="1.12014" ry="1.11402" fill="#98A2B3"/>
<ellipse cx="544.257" cy="278.133" rx="1.12014" ry="1.11402" fill="#98A2B3"/>
<ellipse cx="1167.06" cy="276.647" rx="1.12014" ry="1.11402" fill="#98A2B3"/>
<ellipse cx="1438.88" cy="276.647" rx="1.12014" ry="1.11402" fill="#98A2B3"/>
<ellipse cx="232.11" cy="435.581" rx="1.12014" ry="1.11402" fill="#98A2B3"/>
<ellipse cx="854.911" cy="434.095" rx="1.12014" ry="1.11402" fill="#98A2B3"/>
<ellipse cx="544.257" cy="435.581" rx="1.12014" ry="1.11402" fill="#98A2B3"/>
<ellipse cx="1167.06" cy="434.095" rx="1.12014" ry="1.11402" fill="#98A2B3"/>
<ellipse cx="1438.88" cy="434.095" rx="1.12014" ry="1.11402" fill="#98A2B3"/>
<ellipse cx="115.615" cy="2.59937" rx="1.12014" ry="1.11402" fill="#98A2B3"/>
<ellipse cx="115.615" cy="472.714" rx="1.12014" ry="1.11402" fill="#98A2B3"/>
<ellipse cx="738.416" cy="1.11402" rx="1.12014" ry="1.11402" fill="#98A2B3"/>
<ellipse cx="738.416" cy="471.229" rx="1.12014" ry="1.11402" fill="#98A2B3"/>
<ellipse cx="427.762" cy="2.59937" rx="1.12014" ry="1.11402" fill="#98A2B3"/>
<ellipse cx="427.762" cy="472.714" rx="1.12014" ry="1.11402" fill="#98A2B3"/>
<ellipse cx="1050.56" cy="1.11402" rx="1.12014" ry="1.11402" fill="#98A2B3"/>
<ellipse cx="1322.38" cy="1.11402" rx="1.12014" ry="1.11402" fill="#98A2B3"/>
<ellipse cx="1050.56" cy="471.229" rx="1.12014" ry="1.11402" fill="#98A2B3"/>
<ellipse cx="1322.38" cy="471.229" rx="1.12014" ry="1.11402" fill="#98A2B3"/>
<ellipse cx="115.615" cy="160.047" rx="1.12014" ry="1.11402" fill="#98A2B3"/>
<ellipse cx="115.615" cy="630.162" rx="1.12014" ry="1.11402" fill="#98A2B3"/>
<ellipse cx="738.416" cy="158.562" rx="1.12014" ry="1.11402" fill="#98A2B3"/>
<ellipse cx="738.416" cy="628.677" rx="1.12014" ry="1.11402" fill="#98A2B3"/>
<ellipse cx="427.762" cy="160.047" rx="1.12014" ry="1.11402" fill="#98A2B3"/>
<ellipse cx="427.762" cy="630.162" rx="1.12014" ry="1.11402" fill="#98A2B3"/>
<ellipse cx="1050.56" cy="158.562" rx="1.12014" ry="1.11402" fill="#98A2B3"/>
<ellipse cx="1322.38" cy="158.562" rx="1.12014" ry="1.11402" fill="#98A2B3"/>
<ellipse cx="1050.56" cy="628.677" rx="1.12014" ry="1.11402" fill="#98A2B3"/>
<ellipse cx="1322.38" cy="628.677" rx="1.12014" ry="1.11402" fill="#98A2B3"/>
<ellipse cx="115.615" cy="317.495" rx="1.12014" ry="1.11402" fill="#98A2B3"/>
<ellipse cx="738.416" cy="316.009" rx="1.12014" ry="1.11402" fill="#98A2B3"/>
<ellipse cx="427.762" cy="317.495" rx="1.12014" ry="1.11402" fill="#98A2B3"/>
<ellipse cx="1050.56" cy="316.009" rx="1.12014" ry="1.11402" fill="#98A2B3"/>
<ellipse cx="1322.38" cy="316.009" rx="1.12014" ry="1.11402" fill="#98A2B3"/>
<ellipse cx="115.615" cy="81.3232" rx="1.12014" ry="1.11402" fill="#98A2B3"/>
<ellipse cx="115.615" cy="551.438" rx="1.12014" ry="1.11402" fill="#98A2B3"/>
<ellipse cx="738.416" cy="79.8379" rx="1.12014" ry="1.11402" fill="#98A2B3"/>
<ellipse cx="738.416" cy="549.953" rx="1.12014" ry="1.11402" fill="#98A2B3"/>
<ellipse cx="427.762" cy="81.3232" rx="1.12014" ry="1.11402" fill="#98A2B3"/>
<ellipse cx="427.762" cy="551.438" rx="1.12014" ry="1.11402" fill="#98A2B3"/>
<ellipse cx="1050.56" cy="79.8379" rx="1.12014" ry="1.11402" fill="#98A2B3"/>
<ellipse cx="1322.38" cy="79.8379" rx="1.12014" ry="1.11402" fill="#98A2B3"/>
<ellipse cx="1050.56" cy="549.953" rx="1.12014" ry="1.11402" fill="#98A2B3"/>
<ellipse cx="1322.38" cy="549.953" rx="1.12014" ry="1.11402" fill="#98A2B3"/>
<ellipse cx="115.615" cy="238.771" rx="1.12014" ry="1.11402" fill="#98A2B3"/>
<ellipse cx="115.615" cy="708.886" rx="1.12014" ry="1.11402" fill="#98A2B3"/>
<ellipse cx="738.416" cy="237.286" rx="1.12014" ry="1.11402" fill="#98A2B3"/>
<ellipse cx="738.416" cy="707.401" rx="1.12014" ry="1.11402" fill="#98A2B3"/>
<ellipse cx="427.762" cy="238.771" rx="1.12014" ry="1.11402" fill="#98A2B3"/>
<ellipse cx="427.762" cy="708.886" rx="1.12014" ry="1.11402" fill="#98A2B3"/>
<ellipse cx="1050.56" cy="237.286" rx="1.12014" ry="1.11402" fill="#98A2B3"/>
<ellipse cx="1322.38" cy="237.286" rx="1.12014" ry="1.11402" fill="#98A2B3"/>
<ellipse cx="1050.56" cy="707.401" rx="1.12014" ry="1.11402" fill="#98A2B3"/>
<ellipse cx="1322.38" cy="707.401" rx="1.12014" ry="1.11402" fill="#98A2B3"/>
<ellipse cx="115.615" cy="396.219" rx="1.12014" ry="1.11402" fill="#98A2B3"/>
<ellipse cx="738.416" cy="394.733" rx="1.12014" ry="1.11402" fill="#98A2B3"/>
<ellipse cx="427.762" cy="396.219" rx="1.12014" ry="1.11402" fill="#98A2B3"/>
<ellipse cx="1050.56" cy="394.733" rx="1.12014" ry="1.11402" fill="#98A2B3"/>
<ellipse cx="1322.38" cy="394.733" rx="1.12014" ry="1.11402" fill="#98A2B3"/>
<ellipse cx="115.615" cy="41.9613" rx="1.12014" ry="1.11402" fill="#98A2B3"/>
<ellipse cx="115.615" cy="512.076" rx="1.12014" ry="1.11402" fill="#98A2B3"/>
<ellipse cx="738.416" cy="40.476" rx="1.12014" ry="1.11402" fill="#98A2B3"/>
<ellipse cx="738.416" cy="510.591" rx="1.12014" ry="1.11402" fill="#98A2B3"/>
<ellipse cx="427.762" cy="41.9613" rx="1.12014" ry="1.11402" fill="#98A2B3"/>
<ellipse cx="427.762" cy="512.076" rx="1.12014" ry="1.11402" fill="#98A2B3"/>
<ellipse cx="1050.56" cy="40.476" rx="1.12014" ry="1.11402" fill="#98A2B3"/>
<ellipse cx="1322.38" cy="40.476" rx="1.12014" ry="1.11402" fill="#98A2B3"/>
<ellipse cx="1050.56" cy="510.591" rx="1.12014" ry="1.11402" fill="#98A2B3"/>
<ellipse cx="1322.38" cy="510.591" rx="1.12014" ry="1.11402" fill="#98A2B3"/>
<ellipse cx="115.615" cy="199.409" rx="1.12014" ry="1.11402" fill="#98A2B3"/>
<ellipse cx="115.615" cy="669.524" rx="1.12014" ry="1.11402" fill="#98A2B3"/>
<ellipse cx="738.416" cy="197.924" rx="1.12014" ry="1.11402" fill="#98A2B3"/>
<ellipse cx="738.416" cy="668.039" rx="1.12014" ry="1.11402" fill="#98A2B3"/>
<ellipse cx="427.762" cy="199.409" rx="1.12014" ry="1.11402" fill="#98A2B3"/>
<ellipse cx="427.762" cy="669.524" rx="1.12014" ry="1.11402" fill="#98A2B3"/>
<ellipse cx="1050.56" cy="197.924" rx="1.12014" ry="1.11402" fill="#98A2B3"/>
<ellipse cx="1322.38" cy="197.924" rx="1.12014" ry="1.11402" fill="#98A2B3"/>
<ellipse cx="1050.56" cy="668.039" rx="1.12014" ry="1.11402" fill="#98A2B3"/>
<ellipse cx="1322.38" cy="668.039" rx="1.12014" ry="1.11402" fill="#98A2B3"/>
<ellipse cx="115.615" cy="356.857" rx="1.12014" ry="1.11402" fill="#98A2B3"/>
<ellipse cx="738.416" cy="355.371" rx="1.12014" ry="1.11402" fill="#98A2B3"/>
<ellipse cx="427.762" cy="356.857" rx="1.12014" ry="1.11402" fill="#98A2B3"/>
<ellipse cx="1050.56" cy="355.371" rx="1.12014" ry="1.11402" fill="#98A2B3"/>
<ellipse cx="1322.38" cy="355.371" rx="1.12014" ry="1.11402" fill="#98A2B3"/>
<ellipse cx="115.615" cy="120.685" rx="1.12014" ry="1.11402" fill="#98A2B3"/>
<ellipse cx="115.615" cy="590.8" rx="1.12014" ry="1.11402" fill="#98A2B3"/>
<ellipse cx="738.416" cy="119.2" rx="1.12014" ry="1.11402" fill="#98A2B3"/>
<ellipse cx="738.416" cy="589.315" rx="1.12014" ry="1.11402" fill="#98A2B3"/>
<ellipse cx="427.762" cy="120.685" rx="1.12014" ry="1.11402" fill="#98A2B3"/>
<ellipse cx="427.762" cy="590.8" rx="1.12014" ry="1.11402" fill="#98A2B3"/>
<ellipse cx="1050.56" cy="119.2" rx="1.12014" ry="1.11402" fill="#98A2B3"/>
<ellipse cx="1322.38" cy="119.2" rx="1.12014" ry="1.11402" fill="#98A2B3"/>
<ellipse cx="1050.56" cy="589.315" rx="1.12014" ry="1.11402" fill="#98A2B3"/>
<ellipse cx="1322.38" cy="589.315" rx="1.12014" ry="1.11402" fill="#98A2B3"/>
<ellipse cx="115.615" cy="278.133" rx="1.12014" ry="1.11402" fill="#98A2B3"/>
<ellipse cx="738.416" cy="276.647" rx="1.12014" ry="1.11402" fill="#98A2B3"/>
<ellipse cx="427.762" cy="278.133" rx="1.12014" ry="1.11402" fill="#98A2B3"/>
<ellipse cx="1050.56" cy="276.647" rx="1.12014" ry="1.11402" fill="#98A2B3"/>
<ellipse cx="1322.38" cy="276.647" rx="1.12014" ry="1.11402" fill="#98A2B3"/>
<ellipse cx="115.615" cy="435.581" rx="1.12014" ry="1.11402" fill="#98A2B3"/>
<ellipse cx="738.416" cy="434.095" rx="1.12014" ry="1.11402" fill="#98A2B3"/>
<ellipse cx="427.762" cy="435.581" rx="1.12014" ry="1.11402" fill="#98A2B3"/>
<ellipse cx="1050.56" cy="434.095" rx="1.12014" ry="1.11402" fill="#98A2B3"/>
<ellipse cx="1322.38" cy="434.095" rx="1.12014" ry="1.11402" fill="#98A2B3"/>
<ellipse cx="270.942" cy="2.59937" rx="1.12014" ry="1.11402" fill="#98A2B3"/>
<ellipse cx="270.942" cy="472.714" rx="1.12014" ry="1.11402" fill="#98A2B3"/>
<ellipse cx="893.743" cy="1.11402" rx="1.12014" ry="1.11402" fill="#98A2B3"/>
<ellipse cx="893.743" cy="471.229" rx="1.12014" ry="1.11402" fill="#98A2B3"/>
<ellipse cx="583.089" cy="2.59937" rx="1.12014" ry="1.11402" fill="#98A2B3"/>
<ellipse cx="583.089" cy="472.714" rx="1.12014" ry="1.11402" fill="#98A2B3"/>
<ellipse cx="1205.89" cy="1.11402" rx="1.12014" ry="1.11402" fill="#98A2B3"/>
<ellipse cx="1205.89" cy="471.229" rx="1.12014" ry="1.11402" fill="#98A2B3"/>
<ellipse cx="270.942" cy="160.047" rx="1.12014" ry="1.11402" fill="#98A2B3"/>
<ellipse cx="270.942" cy="630.162" rx="1.12014" ry="1.11402" fill="#98A2B3"/>
<ellipse cx="893.743" cy="158.562" rx="1.12014" ry="1.11402" fill="#98A2B3"/>
<ellipse cx="893.743" cy="628.677" rx="1.12014" ry="1.11402" fill="#98A2B3"/>
<ellipse cx="583.089" cy="160.047" rx="1.12014" ry="1.11402" fill="#98A2B3"/>
<ellipse cx="583.089" cy="630.162" rx="1.12014" ry="1.11402" fill="#98A2B3"/>
<ellipse cx="1205.89" cy="158.562" rx="1.12014" ry="1.11402" fill="#98A2B3"/>
<ellipse cx="1205.89" cy="628.677" rx="1.12014" ry="1.11402" fill="#98A2B3"/>
<ellipse cx="270.942" cy="317.495" rx="1.12014" ry="1.11402" fill="#98A2B3"/>
<ellipse cx="893.743" cy="316.009" rx="1.12014" ry="1.11402" fill="#98A2B3"/>
<ellipse cx="583.089" cy="317.495" rx="1.12014" ry="1.11402" fill="#98A2B3"/>
<ellipse cx="1205.89" cy="316.009" rx="1.12014" ry="1.11402" fill="#98A2B3"/>
<ellipse cx="270.942" cy="81.3232" rx="1.12014" ry="1.11402" fill="#98A2B3"/>
<ellipse cx="270.942" cy="551.438" rx="1.12014" ry="1.11402" fill="#98A2B3"/>
<ellipse cx="893.743" cy="79.8379" rx="1.12014" ry="1.11402" fill="#98A2B3"/>
<ellipse cx="893.743" cy="549.953" rx="1.12014" ry="1.11402" fill="#98A2B3"/>
<ellipse cx="583.089" cy="81.3232" rx="1.12014" ry="1.11402" fill="#98A2B3"/>
<ellipse cx="583.089" cy="551.438" rx="1.12014" ry="1.11402" fill="#98A2B3"/>
<ellipse cx="1205.89" cy="79.8379" rx="1.12014" ry="1.11402" fill="#98A2B3"/>
<ellipse cx="1205.89" cy="549.953" rx="1.12014" ry="1.11402" fill="#98A2B3"/>
<ellipse cx="270.942" cy="238.771" rx="1.12014" ry="1.11402" fill="#98A2B3"/>
<ellipse cx="270.942" cy="708.886" rx="1.12014" ry="1.11402" fill="#98A2B3"/>
<ellipse cx="893.743" cy="237.286" rx="1.12014" ry="1.11402" fill="#98A2B3"/>
<ellipse cx="893.743" cy="707.401" rx="1.12014" ry="1.11402" fill="#98A2B3"/>
<ellipse cx="583.089" cy="238.771" rx="1.12014" ry="1.11402" fill="#98A2B3"/>
<ellipse cx="583.089" cy="708.886" rx="1.12014" ry="1.11402" fill="#98A2B3"/>
<ellipse cx="1205.89" cy="237.286" rx="1.12014" ry="1.11402" fill="#98A2B3"/>
<ellipse cx="1205.89" cy="707.401" rx="1.12014" ry="1.11402" fill="#98A2B3"/>
<ellipse cx="270.942" cy="396.219" rx="1.12014" ry="1.11402" fill="#98A2B3"/>
<ellipse cx="893.743" cy="394.733" rx="1.12014" ry="1.11402" fill="#98A2B3"/>
<ellipse cx="583.089" cy="396.219" rx="1.12014" ry="1.11402" fill="#98A2B3"/>
<ellipse cx="1205.89" cy="394.733" rx="1.12014" ry="1.11402" fill="#98A2B3"/>
<ellipse cx="270.942" cy="41.9613" rx="1.12014" ry="1.11402" fill="#98A2B3"/>
<ellipse cx="270.942" cy="512.076" rx="1.12014" ry="1.11402" fill="#98A2B3"/>
<ellipse cx="893.743" cy="40.476" rx="1.12014" ry="1.11402" fill="#98A2B3"/>
<ellipse cx="893.743" cy="510.591" rx="1.12014" ry="1.11402" fill="#98A2B3"/>
<ellipse cx="583.089" cy="41.9613" rx="1.12014" ry="1.11402" fill="#98A2B3"/>
<ellipse cx="583.089" cy="512.076" rx="1.12014" ry="1.11402" fill="#98A2B3"/>
<ellipse cx="1205.89" cy="40.476" rx="1.12014" ry="1.11402" fill="#98A2B3"/>
<ellipse cx="1205.89" cy="510.591" rx="1.12014" ry="1.11402" fill="#98A2B3"/>
<ellipse cx="270.942" cy="199.409" rx="1.12014" ry="1.11402" fill="#98A2B3"/>
<ellipse cx="270.942" cy="669.524" rx="1.12014" ry="1.11402" fill="#98A2B3"/>
<ellipse cx="893.743" cy="197.924" rx="1.12014" ry="1.11402" fill="#98A2B3"/>
<ellipse cx="893.743" cy="668.039" rx="1.12014" ry="1.11402" fill="#98A2B3"/>
<ellipse cx="583.089" cy="199.409" rx="1.12014" ry="1.11402" fill="#98A2B3"/>
<ellipse cx="583.089" cy="669.524" rx="1.12014" ry="1.11402" fill="#98A2B3"/>
<ellipse cx="1205.89" cy="197.924" rx="1.12014" ry="1.11402" fill="#98A2B3"/>
<ellipse cx="1205.89" cy="668.039" rx="1.12014" ry="1.11402" fill="#98A2B3"/>
<ellipse cx="270.942" cy="356.857" rx="1.12014" ry="1.11402" fill="#98A2B3"/>
<ellipse cx="893.743" cy="355.371" rx="1.12014" ry="1.11402" fill="#98A2B3"/>
<ellipse cx="583.089" cy="356.857" rx="1.12014" ry="1.11402" fill="#98A2B3"/>
<ellipse cx="1205.89" cy="355.371" rx="1.12014" ry="1.11402" fill="#98A2B3"/>
<ellipse cx="270.942" cy="120.685" rx="1.12014" ry="1.11402" fill="#98A2B3"/>
<ellipse cx="270.942" cy="590.8" rx="1.12014" ry="1.11402" fill="#98A2B3"/>
<ellipse cx="893.743" cy="119.2" rx="1.12014" ry="1.11402" fill="#98A2B3"/>
<ellipse cx="893.743" cy="589.315" rx="1.12014" ry="1.11402" fill="#98A2B3"/>
<ellipse cx="583.089" cy="120.685" rx="1.12014" ry="1.11402" fill="#98A2B3"/>
<ellipse cx="583.089" cy="590.8" rx="1.12014" ry="1.11402" fill="#98A2B3"/>
<ellipse cx="1205.89" cy="119.2" rx="1.12014" ry="1.11402" fill="#98A2B3"/>
<ellipse cx="1205.89" cy="589.315" rx="1.12014" ry="1.11402" fill="#98A2B3"/>
<ellipse cx="270.942" cy="278.133" rx="1.12014" ry="1.11402" fill="#98A2B3"/>
<ellipse cx="893.743" cy="276.647" rx="1.12014" ry="1.11402" fill="#98A2B3"/>
<ellipse cx="583.089" cy="278.133" rx="1.12014" ry="1.11402" fill="#98A2B3"/>
<ellipse cx="1205.89" cy="276.647" rx="1.12014" ry="1.11402" fill="#98A2B3"/>
<ellipse cx="270.942" cy="435.581" rx="1.12014" ry="1.11402" fill="#98A2B3"/>
<ellipse cx="893.743" cy="434.095" rx="1.12014" ry="1.11402" fill="#98A2B3"/>
<ellipse cx="583.089" cy="435.581" rx="1.12014" ry="1.11402" fill="#98A2B3"/>
<ellipse cx="1205.89" cy="434.095" rx="1.12014" ry="1.11402" fill="#98A2B3"/>
</svg>
