<svg width="204" height="322" viewBox="0 0 204 322" fill="none" xmlns="http://www.w3.org/2000/svg">
<g clip-path="url(#clip0_3_114)">
<rect width="204" height="322" rx="5" fill="white"/>
<path d="M129 303.627C166.5 304.008 194.5 289.336 204 281V289.336C166.5 308.5 150.5 306.5 129 303.627Z" fill="#90C01F"/>
<path d="M0 301.431V309C51.5 285.562 91.5 298.178 98 299.439C57.6 282.282 16 295.654 0 301.431Z" fill="#90C01F"/>
<path d="M0 314.636V322H204V295C172.078 310.709 147.138 310.953 126.688 307.272C59.8521 295.24 35.912 296.227 0 314.636Z" fill="#90C01F"/>
<path d="M111.273 43.0935C64.6585 32.6916 29.5725 40.1215 0 53V0H204V34.6729C172.322 49.3346 125.307 46.2252 111.273 43.0935Z" fill="#90C01F"/>
<path d="M106 48.6189C56.4 39.4189 14.6667 58.7855 0 69.6189V73.6189C40 47.6189 87.3333 46.1189 106 48.6189Z" fill="#90C01F"/>
<path d="M107 45.6188C60.5 35.1189 17.3333 49.9522 0 58.6188V64.1187C39.5 39.1189 89.5 42.7806 107 45.6188Z" fill="#90C01F"/>
<path d="M119.5 46.5C165.5 52 189 44.5 204 38.5V42.5C170.5 52.5 133.5 50 119.5 46.5Z" fill="#90C01F"/>
<path d="M119 49.5C157 57.5 191.5 51.5 204 46.5V51.5C164 60 130 52.5 119 49.5Z" fill="#90C01F"/>
<rect x="67.5" y="73.5" width="69" height="69" rx="4.5" stroke="#90C01F"/>
</g>
<defs>
<clipPath id="clip0_3_114">
<rect width="204" height="322" rx="5" fill="white"/>
</clipPath>
</defs>
</svg>
